<svg width="31" height="27" viewBox="0 0 31 27" fill="none" xmlns="http://www.w3.org/2000/svg">
<path d="M25.0925 16.8554V25.8367H6.12738V19.2909H12.8479M25.0925 10.5019V6.62201L19.2205 0.75H6.12738V12.77M19.2205 0.75V6.62201H25.0925" stroke="#2951A3" stroke-width="1.5" stroke-linecap="round" stroke-linejoin="round"/>
<path d="M0.750061 23.5481C0.805214 22.8828 0.942791 22.227 1.15963 21.5956C1.60885 20.1765 2.42225 18.9 3.51871 17.8933C4.50227 17.0286 5.67551 16.4076 6.94356 16.0803C8.35871 15.7089 9.82672 15.8352 11.2712 15.8352H17.7789C18.8637 15.8352 19.9809 15.9321 21.0628 15.7926C21.8306 15.6913 22.4956 15.3684 23.1767 15.0175C23.8702 14.6579 24.5382 14.2513 25.1761 13.8005C26.6004 12.7882 27.895 11.6049 29.0311 10.2773" stroke="#2951A3" stroke-width="1.5" stroke-linecap="round" stroke-linejoin="round"/>
<path d="M29.799 9.23669C29.7127 9.64439 29.638 10.0627 29.5782 10.4799L29.3898 10.183L29.2443 9.95447L28.9855 9.87146L28.6525 9.76501C29.041 9.60148 29.4267 9.42352 29.799 9.23669Z" fill="white" stroke="#2951A3" stroke-width="1.5"/>
<path d="M15.3171 19.329H19.4686" stroke="#2951A3" stroke-width="1.5" stroke-linecap="round" stroke-linejoin="round"/>
<path d="M21.5957 19.329H22.8758" stroke="#2951A3" stroke-width="1.5" stroke-linecap="round" stroke-linejoin="round"/>
<path d="M8.14294 22.6086H22.8802" stroke="#2951A3" stroke-width="1.5" stroke-linecap="round" stroke-linejoin="round"/>
<path d="M8.14294 12.7891H19.2205" stroke="#2951A3" stroke-width="1.5" stroke-linecap="round" stroke-linejoin="round"/>
<path d="M8.14294 9.85309H22.3297" stroke="#2951A3" stroke-width="1.5" stroke-linecap="round" stroke-linejoin="round"/>
<path d="M8.2868 6.91708H16.8878" stroke="#2951A3" stroke-width="1.5" stroke-linecap="round" stroke-linejoin="round"/>
<path d="M8.14294 3.98108H16.744" stroke="#2951A3" stroke-width="1.5" stroke-linecap="round" stroke-linejoin="round"/>
</svg>
